# Simple Cup OBJ Model
# A basic cup shape with cylindrical body

# Vertices for the cup body (cylinder)
v 0.0 0.0 0.5
v 0.5 0.0 0.433
v 0.866 0.0 0.25
v 1.0 0.0 0.0
v 0.866 0.0 -0.25
v 0.5 0.0 -0.433
v 0.0 0.0 -0.5
v -0.5 0.0 -0.433
v -0.866 0.0 -0.25
v -1.0 0.0 0.0
v -0.866 0.0 0.25
v -0.5 0.0 0.433

# Top vertices
v 0.0 2.0 0.5
v 0.5 2.0 0.433
v 0.866 2.0 0.25
v 1.0 2.0 0.0
v 0.866 2.0 -0.25
v 0.5 2.0 -0.433
v 0.0 2.0 -0.5
v -0.5 2.0 -0.433
v -0.866 2.0 -0.25
v -1.0 2.0 0.0
v -0.866 2.0 0.25
v -0.5 2.0 0.433

# Bottom center
v 0.0 0.0 0.0

# Top center
v 0.0 2.0 0.0

# Normal vectors
vn 0.0 0.0 1.0
vn 0.707 0.0 0.707
vn 1.0 0.0 0.0
vn 0.707 0.0 -0.707
vn 0.0 0.0 -1.0
vn -0.707 0.0 -0.707
vn -1.0 0.0 0.0
vn -0.707 0.0 0.707
vn 0.0 -1.0 0.0
vn 0.0 1.0 0.0

# Faces for cup body
f 1//1 2//2 14//2 13//1
f 2//2 3//3 15//3 14//2
f 3//3 4//3 16//3 15//3
f 4//3 5//4 17//4 16//3
f 5//4 6//5 18//5 17//4
f 6//5 7//5 19//5 18//5
f 7//5 8//6 20//6 19//5
f 8//6 9//7 21//7 20//6
f 9//7 10//7 22//7 21//7
f 10//7 11//8 23//8 22//7
f 11//8 12//1 24//1 23//8
f 12//1 1//1 13//1 24//1

# Bottom cap
f 25//9 2//9 1//9
f 25//9 3//9 2//9
f 25//9 4//9 3//9
f 25//9 5//9 4//9
f 25//9 6//9 5//9
f 25//9 7//9 6//9
f 25//9 8//9 7//9
f 25//9 9//9 8//9
f 25//9 10//9 9//9
f 25//9 11//9 10//9
f 25//9 12//9 11//9
f 25//9 1//9 12//9

# Top cap
f 13//10 14//10 26//10
f 14//10 15//10 26//10
f 15//10 16//10 26//10
f 16//10 17//10 26//10
f 17//10 18//10 26//10
f 18//10 19//10 26//10
f 19//10 20//10 26//10
f 20//10 21//10 26//10
f 21//10 22//10 26//10
f 22//10 23//10 26//10
f 23//10 24//10 26//10
f 24//10 13//10 26//10
